<?xml version="1.0" encoding="utf-8"?>
<!-- Generator: Adobe Illustrator 27.5.0, SVG Export Plug-In . SVG Version: 6.00 Build 0)  -->
<svg version="1.1" xmlns="http://www.w3.org/2000/svg" xmlns:xlink="http://www.w3.org/1999/xlink" x="0px" y="0px"
	 viewBox="0 0 3710 3710" style="enable-background:new 0 0 3710 3710;" xml:space="preserve">
<g id="Background">
	<g>
		<g>
			<rect style="fill:#FFFFFF;" width="3710" height="3710"/>
		</g>
	</g>
</g>
<g id="Illustration">
	<g>
		<linearGradient id="SVGID_1_" gradientUnits="userSpaceOnUse" x1="3586.4109" y1="4072.0842" x2="1123.0562" y2="1012.7523">
			<stop  offset="0" style="stop-color:#DAE3FE"/>
			<stop  offset="1" style="stop-color:#E9EFFD"/>
		</linearGradient>
		<path style="fill:url(#SVGID_1_);" d="M2908.726,2865.594c-56.582,59.567-110.12,97.982-152.419,128.332
			c-497.217,356.759-1085.556,252.765-1210.595,227.369c-184.643-37.502-541.554-109.992-799.594-413.442
			c-390.393-459.094-329.603-1182.385-26.788-1659.839c55.39-87.335,347.974-572.061,942.65-649.796
			c359.892-47.044,779.41,47.838,1083.213,302.365C3382.905,1334.858,3337.506,2414.188,2908.726,2865.594z"/>
		<g>
			<path style="fill:#BDD0FB;" d="M1688.858,1039.216c-0.099-7.133-3.076-13.924-8.254-18.831
				c-5.179-4.906-12.121-7.513-19.249-7.227l-541.666,21.717c-9.297,0.372-16.577,8.132-16.356,17.435l27.496,1157.959
				l547.701-6.683c7.021-0.085,13.72-2.96,18.62-7.99c4.9-5.029,7.599-11.8,7.501-18.821L1688.858,1039.216z"/>
			<g style="opacity:0.5;">
				<g>
					<polygon style="fill:#FFFFFF;" points="1252.669,1251.867 1165.505,1251.504 1164.475,1102.146 1251.83,1102.146 					"/>
					<polygon style="fill:#FFFFFF;" points="1377.789,1251.59 1290.95,1251.226 1290.195,1102.146 1377.225,1102.146 					"/>
					<polygon style="fill:#FFFFFF;" points="1509.356,1251.3 1422.857,1250.934 1422.391,1102.146 1509.079,1102.146 					"/>
					<polygon style="fill:#FFFFFF;" points="1634.819,1252.131 1549.723,1251.208 1550.609,1102.146 1634.819,1102.146 					"/>
				</g>
				<g>
					<polygon style="fill:#FFFFFF;" points="1253.86,1464.16 1166.968,1464.625 1165.944,1316.747 1253.027,1316.472 					"/>
					<polygon style="fill:#FFFFFF;" points="1378.591,1463.492 1292.022,1463.955 1291.272,1316.352 1378.03,1316.078 					"/>
					<polygon style="fill:#FFFFFF;" points="1509.75,1462.789 1423.519,1463.251 1423.056,1315.935 1509.475,1315.663 					"/>
					<polygon style="fill:#FFFFFF;" points="1634.819,1462.108 1549.989,1462.568 1549.266,1315.532 1634.819,1315.26 					"/>
				</g>
				<g>
					<polygon style="fill:#FFFFFF;" points="1255.083,1681.007 1168.47,1681.75 1167.453,1534.818 1254.255,1534.262 					"/>
					<polygon style="fill:#FFFFFF;" points="1379.414,1679.94 1293.122,1680.681 1292.377,1534.018 1378.857,1533.465 					"/>
					<polygon style="fill:#FFFFFF;" points="1510.155,1678.818 1424.199,1679.556 1423.739,1533.178 1509.881,1532.626 					"/>
					<polygon style="fill:#FFFFFF;" points="1634.819,1677.729 1550.262,1678.465 1549.541,1532.362 1634.819,1531.813 					"/>
				</g>
				<g>
					<polygon style="fill:#FFFFFF;" points="1256.279,1893.01 1169.939,1894.023 1168.953,1751.495 1255.476,1750.663 					"/>
					<polygon style="fill:#FFFFFF;" points="1380.22,1891.555 1294.198,1892.565 1293.476,1750.297 1379.679,1749.468 					"/>
					<polygon style="fill:#FFFFFF;" points="1510.551,1890.025 1424.864,1891.031 1424.417,1749.038 1510.285,1748.212 					"/>
					<polygon style="fill:#FFFFFF;" points="1634.819,1888.541 1550.529,1889.543 1549.813,1747.816 1634.819,1746.993 					"/>
				</g>
				<g>
					<polygon style="fill:#FFFFFF;" points="1257.487,2107.132 1171.423,2108.416 1170.443,1966.793 1256.689,1965.687 					"/>
					<polygon style="fill:#FFFFFF;" points="1381.033,2105.287 1295.285,2106.567 1294.567,1965.202 1380.496,1964.1 					"/>
					<polygon style="fill:#FFFFFF;" points="1510.95,2103.348 1425.535,2104.623 1425.092,1963.528 1510.686,1962.431 					"/>
					<polygon style="fill:#FFFFFF;" points="1634.819,2101.468 1550.799,2102.738 1550.084,1961.906 1634.819,1960.812 					"/>
				</g>
			</g>
		</g>
		<g>
			<path style="fill:#91B3FA;" d="M1258.8,837.347c-0.159-6.976-3.196-13.575-8.392-18.233c-5.195-4.658-12.088-6.958-19.039-6.355
				l-702.158,60.822c-13.055,1.131-23.483,12.058-23.483,25.162v1411.508c0,13.949,12.12,24.205,26.069,24.205h735.274
				c6.798,0,13.31-2.214,18.062-7.076c4.752-4.862,7.343-11.17,7.188-17.967L1258.8,837.347z"/>
			<g style="opacity:0.3;">
				<path style="fill:#FFFFFF;" d="M644.846,943.2l-56.067,3.629c-5.874,0.385-11.356,5.81-11.356,12.117v1287.534
					c0,6.44,6.257,11.241,12.193,11.241h55.932c5.973,0,10.879-5.031,10.875-11.496L655.62,953.852
					C655.617,947.521,650.756,942.813,644.846,943.2z"/>
				<path style="fill:#FFFFFF;" d="M774.858,934.675l-56.061,3.676c-5.95,0.39-11.688,5.912-11.682,12.26l1.344,1295.584
					c0.007,6.482,5.818,11.527,11.831,11.527h56.667c6.051,0,10.076-5.065,10.065-11.573l-2.168-1300.698
					C784.844,939.08,780.845,934.282,774.858,934.675z"/>
				<path style="fill:#FFFFFF;" d="M906.568,926.038l-56.795,3.724c-6.028,0.395-9.502,5.803-9.488,12.192l2.759,1304.163
					c0.014,6.525,3.548,11.605,9.641,11.605H910.1c6.132,0,12.582-5.101,12.564-11.652l-3.604-1309.342
					C919.042,930.314,912.633,925.64,906.568,926.038z"/>
				<path style="fill:#FFFFFF;" d="M1040.008,917.288l-57.542,3.773c-6.107,0.4-10.569,5.906-10.548,12.336l4.175,1312.641
					c0.021,6.569,4.566,11.683,10.74,11.683h58.179c6.214,0,11.778-5.135,11.753-11.73l-5.043-1317.887
					C1051.697,921.65,1046.153,916.885,1040.008,917.288z"/>
				<path style="fill:#FFFFFF;" d="M1175.212,908.422l-58.305,3.823c-6.187,0.406-11.663,6.012-11.635,12.484l5.629,1321.231
					c0.028,6.611,5.611,11.761,11.867,11.761h58.958c6.297,0,10.951-5.171,10.919-11.809l-6.519-1326.544
					C1186.094,912.871,1181.438,908.014,1175.212,908.422z"/>
			</g>
		</g>
		<g>
			<path style="fill:#7D97F4;" d="M2563.573,1002.24c-0.096-6.866-2.961-13.404-7.945-18.127c-4.986-4.723-11.668-7.232-18.53-6.957
				l-521.421,20.906c-8.949,0.359-15.957,7.828-15.745,16.783l26.468,1114.681l527.231-6.433c6.759-0.083,13.207-2.849,17.924-7.691
				c4.717-4.841,7.315-11.359,7.221-18.118L2563.573,1002.24z"/>
			<g style="opacity:0.5;">
				<g>
					<polygon style="fill:#FFFFFF;" points="2143.685,1207.974 2059.779,1208.139 2058.788,1064.879 2142.878,1064.879 					"/>
					<polygon style="fill:#FFFFFF;" points="2264.13,1207.708 2180.535,1207.872 2179.809,1064.879 2263.586,1064.879 					"/>
					<polygon style="fill:#FFFFFF;" points="2390.779,1207.428 2307.513,1207.591 2307.065,1064.879 2390.512,1064.879 					"/>
					<polygon style="fill:#FFFFFF;" points="2513.62,1207.197 2430.671,1207.339 2430.491,1064.879 2513.62,1064.879 					"/>
				</g>
				<g>
					<polygon style="fill:#FFFFFF;" points="2144.832,1411.302 2061.188,1411.75 2060.202,1269.398 2144.03,1269.134 					"/>
					<polygon style="fill:#FFFFFF;" points="2264.902,1410.659 2181.567,1411.105 2180.846,1269.018 2264.362,1268.754 					"/>
					<polygon style="fill:#FFFFFF;" points="2391.159,1409.983 2308.15,1410.427 2307.705,1268.617 2390.893,1268.354 					"/>
					<polygon style="fill:#FFFFFF;" points="2513.62,1409.327 2430.927,1409.77 2430.748,1268.229 2513.62,1267.967 					"/>
				</g>
				<g>
					<polygon style="fill:#FFFFFF;" points="2146.01,1620.044 2062.634,1620.76 2061.655,1479.319 2145.213,1478.784 					"/>
					<polygon style="fill:#FFFFFF;" points="2265.694,1619.017 2182.627,1619.73 2181.91,1478.549 2265.158,1478.016 					"/>
					<polygon style="fill:#FFFFFF;" points="2391.548,1617.937 2308.805,1618.647 2308.362,1477.74 2391.285,1477.209 					"/>
					<polygon style="fill:#FFFFFF;" points="2513.62,1616.889 2431.19,1617.597 2431.012,1476.955 2513.62,1476.427 					"/>
				</g>
				<g>
					<polygon style="fill:#FFFFFF;" points="2147.161,1824.124 2064.048,1825.099 2063.098,1687.898 2146.388,1687.097 					"/>
					<polygon style="fill:#FFFFFF;" points="2266.469,1822.723 2183.663,1823.695 2182.968,1686.745 2265.949,1685.947 					"/>
					<polygon style="fill:#FFFFFF;" points="2391.929,1821.25 2309.445,1822.219 2309.015,1685.533 2391.673,1684.737 					"/>
					<polygon style="fill:#FFFFFF;" points="2513.62,1819.822 2431.447,1820.787 2431.274,1684.356 2513.62,1683.564 					"/>
				</g>
				<g>
					<polygon style="fill:#FFFFFF;" points="2148.323,2030.243 2065.476,2031.479 2064.533,1895.149 2147.555,1894.085 					"/>
					<polygon style="fill:#FFFFFF;" points="2267.252,2028.468 2184.709,2029.7 2184.018,1893.618 2266.735,1892.557 					"/>
					<polygon style="fill:#FFFFFF;" points="2392.314,2026.601 2310.091,2027.828 2309.664,1892.007 2392.06,1890.95 					"/>
					<polygon style="fill:#FFFFFF;" points="2513.62,2024.791 2431.707,2026.013 2431.535,1890.444 2513.62,1889.392 					"/>
				</g>
			</g>
		</g>
		<g>
			<path style="fill:#91B3FA;" d="M2133.549,1200.973c-0.109-6.258-2.723-12.212-7.257-16.527
				c-4.533-4.316-10.609-6.633-16.865-6.433l-506.249,16.176c-12.885,0.412-23.006,11.177-22.622,24.063l24.979,838.425
				c0.38,12.723,10.867,22.805,23.596,22.682l496.073-4.825c6.231-0.061,12.18-2.606,16.527-7.072
				c4.346-4.466,6.729-10.482,6.621-16.712L2133.549,1200.973z"/>
			<g style="opacity:0.4;">
				<path style="fill:#FFFFFF;" d="M2080.735,1242.13h-450.816c-4.385,0-7.903,2.265-7.858,6.422l0.431,39.323
					c0.045,4.175,3.661,8.661,8.058,8.666l452.1,0.354c4.476,0.005,7.94-4.861,7.796-9.074l-1.372-39.167
					C2088.931,1244.459,2085.198,1242.13,2080.735,1242.13z"/>
				<path style="fill:#FFFFFF;" d="M2083.662,1326.801l-452.779-0.753c-4.404-0.007-7.928,4.196-7.883,8.39l0.434,40.223
					c0.045,4.212,3.668,8.205,8.085,8.217l454.074,1.254c4.495,0.013,8.002-3.997,7.857-8.248l-1.384-40.59
					C2091.922,1331.062,2088.144,1326.808,2083.662,1326.801z"/>
				<path style="fill:#FFFFFF;" d="M2086.716,1417.472l-454.827-1.547c-4.423-0.015-7.987,2.029-7.941,6.259l0.438,40.574
					c0.046,4.249,3.676,7.46,8.111,7.48l456.065,2.03c4.516,0.02,8.066-3.189,7.92-7.477l-1.396-40.948
					C2094.94,1419.574,2091.219,1417.487,2086.716,1417.472z"/>
				<path style="fill:#FFFFFF;" d="M2089.695,1505.901l-456.825-2.327c-4.443-0.022-8.013,2.858-7.967,7.125l0.442,40.93
					c0.046,4.286,3.683,6.703,8.138,6.73l458.073,2.819c4.535,0.028,8.13-2.366,7.982-6.692l-1.408-41.311
					C2097.985,1508.868,2094.218,1505.924,2089.695,1505.901z"/>
				<path style="fill:#FFFFFF;" d="M2092.701,1595.106l-458.84-3.122c-4.462-0.03-8.039,3.703-7.992,8.007l0.446,41.291
					c0.047,4.324,3.725,9.009,8.199,9.045l460.17,3.649c4.556,0.036,8.089-4.635,7.941-8.999l-1.421-41.678
					C2101.056,1598.954,2097.244,1595.137,2092.701,1595.106z"/>
				<path style="fill:#FFFFFF;" d="M2095.732,1685.099l-460.873-3.929c-4.481-0.038-8.065,4.561-8.018,8.904l0.45,41.657
					c0.047,4.362,3.732,8.25,8.227,8.294l462.216,4.466c4.576,0.044,8.154-3.81,8.004-8.214l-1.433-42.051
					C2104.155,1689.843,2100.296,1685.138,2095.732,1685.099z"/>
				<path style="fill:#FFFFFF;" d="M2098.897,1779.034l-462.996-4.78c-4.502-0.047-8.126,2.318-8.078,6.7l0.454,42.028
					c0.048,4.401,3.74,7.478,8.254,7.53l464.279,5.298c4.597,0.052,8.22-2.97,8.068-7.413l-1.447-42.429
					C2107.281,1781.546,2103.482,1779.081,2098.897,1779.034z"/>
				<path style="fill:#FFFFFF;" d="M2101.984,1870.661l-465.066-5.617c-4.522-0.055-8.152,3.18-8.104,7.601l0.458,42.404
					c0.048,4.44,3.748,6.692,8.282,6.751l466.36,6.144c4.618,0.061,8.286-2.114,8.133-6.597l-1.459-42.811
					C2110.435,1874.072,2106.589,1870.716,2101.984,1870.661z"/>
				<path style="fill:#FFFFFF;" d="M2105.099,1963.106l-467.155-6.469c-4.542-0.063-8.179,4.058-8.131,8.518l0.462,42.784
					c0.049,4.48,3.791,9.081,8.346,9.15l468.533,7.035c4.64,0.07,8.245-4.463,8.091-8.987l-1.473-43.199
					C2113.618,1967.434,2109.725,1963.17,2105.099,1963.106z"/>
			</g>
		</g>
		<g>
			<g>
				<g>
					<path style="fill:#91B3FA;" d="M2801.135,1761.604c-9.037-35.676-13.322-71.976-8.435-109.569
						c12.314-94.721,83.99-169.755,140.127-242.106c51.595-66.496,101.098-171.115-24.575-186.315
						c-100.122-12.109-235.823,62.682-269.74,162.416c-40.138,118.04-12.024,282.806-104.232,378.762
						c-128.995,134.239-192.453,84.675-244.983,344.582c-22.446,111.056,26.688,184.748,90.327,232.73
						c100.447,75.733,237.403,81.016,343.341,13.174c93.59-59.935,162.144-159.431,168.501-271.947
						C2897.885,1969.692,2828.2,1868.445,2801.135,1761.604z"/>
					<path style="fill:#7D97F4;" d="M2550.259,2582.096c-2.665,0-4.884-2.097-5.008-4.786
						c-11.852-257.203-0.382-485.882,34.09-679.68c27.615-155.246,69.98-288.632,125.916-396.45
						c95.662-184.39,196.581-229.562,200.83-231.394c2.547-1.096,5.489,0.075,6.587,2.614c1.101,2.541-0.068,5.493-2.608,6.596
						c-1.014,0.441-102.539,46.174-196.54,228.032c-86.934,168.186-184.958,490.314-158.253,1069.821
						c0.127,2.766-2.013,5.115-4.781,5.242C2550.414,2582.094,2550.336,2582.096,2550.259,2582.096z"/>
				</g>
				<path style="fill:#91B3FA;" d="M2954.706,1507.454c-4.504-2.255-9.657-3.717-15.36-4.202
					c-31.544-2.686-50.774,27.265-64.968,50.852c-12.156,20.199-26.636,44.773-26.822,69.28c-0.2,26.496,22.671,52.766,47.55,30.851
					c28.279-24.91,70.919-63.314,79.003-102.264C2978.127,1532.609,2970.306,1515.266,2954.706,1507.454z"/>
			</g>
			<g>
				<path style="fill:#91B3FA;" d="M3168.126,2281.746c29.398-80.52,18.482-181.989,21.168-272.878
					c1.42-48.055,7.051-94.893,23.968-140.177c16.819-45.024,48.849-90.923,38.061-141.347
					c-21.74-101.589-126.875-78.605-196.387-19.485c-80.664,68.606-125.15,198.363-170.271,296.084
					c-27.202,58.911-62.166,117.908-82.662,179.4c-33.954,101.866-24.993,179.164,15.079,238.241
					c38.434,56.665,109.461,81.159,174.694,60.356C3050.704,2463.146,3120.701,2411.641,3168.126,2281.746z"/>
				<path style="fill:#7D97F4;" d="M2870.009,2623.348c-0.055,0-0.111,0-0.167,0c-2.77,0-4.941-1.909-4.85-4.677
					c0.042-1.303,4.657-132.107,39.468-307.173c32.142-161.648,97.347-394.922,225.452-588.862c1.525-2.312,4.638-2.89,6.95-1.358
					c2.312,1.527,2.948,4.669,1.421,6.981c-127.206,192.583-192.015,424.664-223.982,585.431
					c-34.65,174.266-39.239,304.003-39.281,305.298C2874.931,2621.702,2872.704,2623.348,2870.009,2623.348z"/>
			</g>
		</g>
		<g>
			<g>
				<g>
					
						<linearGradient id="SVGID_00000062897523380527639760000016286357960483504319_" gradientUnits="userSpaceOnUse" x1="1719.1249" y1="1496.457" x2="2059.5227" y2="1496.457">
						<stop  offset="0" style="stop-color:#4F52FF"/>
						<stop  offset="1" style="stop-color:#4042E2"/>
					</linearGradient>
					
						<circle style="fill:url(#SVGID_00000062897523380527639760000016286357960483504319_);" cx="1889.324" cy="1496.457" r="170.199"/>
					
						<linearGradient id="SVGID_00000041283006692903381760000003838875944155658677_" gradientUnits="userSpaceOnUse" x1="1718.8143" y1="1670.2063" x2="2059.5398" y2="1670.2063">
						<stop  offset="0" style="stop-color:#4F52FF"/>
						<stop  offset="1" style="stop-color:#4042E2"/>
					</linearGradient>
					<path style="fill:url(#SVGID_00000041283006692903381760000003838875944155658677_);" d="M2059.212,1482.923h-169.888h-170.199
						c0,0-13.55,96.673,138.35,355.422c6.627,11.289,18.737,19.138,31.828,19.144c13.091,0.006,25.222-8.281,31.849-19.57
						C2073.036,1579.147,2059.212,1482.923,2059.212,1482.923z"/>
				</g>
				<g>
					<path style="opacity:0.8;fill:#FFFFFF;" d="M1891.57,1864.114v0.065h-2.27c-14.815,0-28.642-7.705-36.087-20.385
						c-88.79-151.248-121.326-246.658-132.98-300.171c-3.323-12.31-5.232-24.266-5.835-36.638
						c-1.028-12.656-0.242-17.932-0.149-18.496l0.448-2.695c6.857-91.425,82.948-162.562,174.627-162.562
						c92.883,0,169.66,72.167,174.851,164.319c0.13,1.206,0.379,4.268,0.282,9.385l0.008,0.63c0,16.717-2.362,33.275-7.02,49.216
						c-12.057,53.466-43.63,148.156-130.908,296.853C1919.045,1856.4,1904.947,1864.114,1891.57,1864.114z M1723.77,1492.956
						c-0.041,0,0.037,7.213,0.485,12.701l0.011,0.49c0.565,11.721,2.377,23.26,5.54,34.943l0.058,0.323
						c11.481,52.786,43.678,147.286,131.874,297.52c5.678,9.672,17.365,15.703,28.692,15.708l1.141,4.962v-4.941
						c6.689,0.001,21.098-6.059,26.823-15.812c86.717-147.745,120.328-241.639,130.361-294.39v-0.305
						c6.689-15.084,6.68-30.758,6.68-46.587l0.008-0.695v-0.056c0-4.927-0.59-7.591-0.67-8.29l-0.241-0.286
						c-4.832-86.983-77.413-155.12-165.1-155.12c-87.519,0-160.038,68.081-165.027,155.827l-0.319,4.009H1723.77z"/>
				</g>
				
					<ellipse transform="matrix(0.7071 -0.7071 0.7071 0.7071 -504.2358 1774.4832)" style="opacity:0.8;fill:#FFFFFF;" cx="1889.873" cy="1495.908" rx="98.276" ry="98.276"/>
				<g>
					<g>
						<path style="fill:#7D97F4;" d="M1889.873,1599.675c-57.217,0-103.766-46.549-103.766-103.767
							c0-57.217,46.549-103.766,103.766-103.766s103.766,46.549,103.766,103.766
							C1993.639,1553.125,1947.09,1599.675,1889.873,1599.675z M1889.873,1403.122c-51.162,0-92.786,41.624-92.786,92.786
							c0,51.162,41.624,92.786,92.786,92.786s92.786-41.624,92.786-92.786C1982.659,1444.746,1941.035,1403.122,1889.873,1403.122z"
							/>
					</g>
				</g>
			</g>
			<g>
				<path style="fill:#BDD0FB;" d="M1796.648,1393.587c-0.463,0-0.924-0.195-1.25-0.574c-0.592-0.69-0.513-1.73,0.177-2.322
					c27.608-23.711,62.881-36.768,99.321-36.768c0.91,0,1.647,0.738,1.647,1.647c0,0.91-0.737,1.647-1.647,1.647
					c-35.654,0-70.164,12.775-97.175,35.972C1797.41,1393.456,1797.028,1393.587,1796.648,1393.587z"/>
			</g>
			<g>
				<path style="fill:#BDD0FB;" d="M1744.023,1508.09c-0.91,0-1.647-0.737-1.647-1.647c0-28.459,7.889-56.222,22.816-80.285
					c0.48-0.774,1.495-1.011,2.268-0.532c0.773,0.48,1.012,1.495,0.532,2.268c-14.604,23.542-22.322,50.704-22.322,78.549
					C1745.67,1507.353,1744.932,1508.09,1744.023,1508.09z"/>
			</g>
		</g>
		<g>
			<polygon style="fill:#7D97F4;" points="3224.452,3238.156 456.504,3238.156 625.86,3123.43 3052.474,3123.43 			"/>
			<polygon style="fill:#7D97F4;" points="2924.8,3043.196 749.332,3043.196 903.639,2942.924 2769.551,2942.924 			"/>
			<polygon style="fill:#7D97F4;" points="2706.545,2891.18 985.933,2891.18 1119.703,2790.908 2578.99,2790.908 			"/>
		</g>
		<g>
			
				<linearGradient id="SVGID_00000145055881439570468290000002968269111779375011_" gradientUnits="userSpaceOnUse" x1="2199.5647" y1="3297.1665" x2="1778.1998" y2="1862.5145">
				<stop  offset="0" style="stop-color:#E1473D"/>
				<stop  offset="1" style="stop-color:#E9605A"/>
			</linearGradient>
			<path style="fill:url(#SVGID_00000145055881439570468290000002968269111779375011_);" d="M1071.594,1994.31
				c16.439-19.256,40.487-31.115,65.807-31.115h1412.717c33.291,0,63.629,19.868,78.021,49.887l31.09,65.235l-1641.408-20.823
				L1071.594,1994.31z"/>
			
				<linearGradient id="SVGID_00000079463700986241807100000003648264866241362328_" gradientUnits="userSpaceOnUse" x1="3349.708" y1="1682.6395" x2="1734.4652" y2="2605.636">
				<stop  offset="0" style="stop-color:#FF928E"/>
				<stop  offset="1" style="stop-color:#FE7062"/>
			</linearGradient>
			<path style="fill:url(#SVGID_00000079463700986241807100000003648264866241362328_);" d="M697.337,2144.844
				c2.112-66.992,58.659-122.476,127.693-122.476h2104.473c57.694,0,108.228,40.595,123.31,94.661l157.346,565.572l-14.443,181.521
				c-2.436,30.739-28.838,53.711-60.594,53.711H756.042C734.252,2917.833,697.337,2144.844,697.337,2144.844z"/>
			
				<linearGradient id="SVGID_00000040555678920426155230000011131697788115360390_" gradientUnits="userSpaceOnUse" x1="839.5695" y1="2728.7925" x2="535.2334" y2="3118.4343">
				<stop  offset="0" style="stop-color:#FF928E"/>
				<stop  offset="1" style="stop-color:#FE7062"/>
			</linearGradient>
			<path style="fill:url(#SVGID_00000040555678920426155230000011131697788115360390_);" d="M731.451,2760.041h30.322
				c15.066,0,28.718,18.812,28.718,40.738v90.609c0,16.044-10.375,26.445-21.399,26.445h-26.234
				c-11.024,0-19.428-10.401-19.428-26.445v-117.86C723.429,2766.652,726.726,2760.041,731.451,2760.041z"/>
			<path style="fill:#FFFFFF;" d="M1113.962,2727.582h-280.08c-2.769,0-5.016-2.245-5.016-5.017s2.247-5.016,5.016-5.016h280.08
				c2.77,0,5.016,2.245,5.016,5.016S1116.731,2727.582,1113.962,2727.582z"/>
			<path style="opacity:0.58;fill:#FFFFFF;" d="M2455.188,2727.582H1433.491c-2.77,0-5.016-2.245-5.016-5.017
				s2.247-5.016,5.016-5.016h1021.697c2.77,0,5.017,2.245,5.017,5.016S2457.958,2727.582,2455.188,2727.582z"/>
			<path style="opacity:0.58;fill:#FFFFFF;" d="M2309.921,2886.345h-287.755c-13.417,0-24.335-10.917-24.335-24.335v-83.379
				c0-13.418,10.918-24.335,24.335-24.335h287.755c13.42,0,24.338,10.917,24.338,24.335v83.379
				C2334.259,2875.429,2323.341,2886.345,2309.921,2886.345z M2022.166,2764.33c-7.887,0-14.302,6.416-14.302,14.302v83.379
				c0,7.886,6.414,14.302,14.302,14.302h287.755c7.887,0,14.305-6.416,14.305-14.302v-83.379c0-7.885-6.418-14.302-14.305-14.302
				H2022.166z"/>
			<path style="opacity:0.58;fill:#FFFFFF;" d="M1763.309,2868.044h-109.906c-13.88,0-25.174-9.321-25.174-20.776v-53.89
				c0-9.775,9.543-17.728,21.275-17.728h121.612c12.806,0,23.224,8.637,23.224,19.253v47.789
				C1794.339,2856.672,1780.419,2868.044,1763.309,2868.044z M1649.503,2785.683c-6.094,0-11.241,3.524-11.241,7.695v53.89
				c0,5.823,6.934,10.743,15.141,10.743h109.906c11.578,0,20.997-6.872,20.997-15.319v-47.789c0-4.997-6.042-9.22-13.191-9.22
				H1649.503z"/>
			
				<linearGradient id="SVGID_00000039812697891022454780000004318597659987677604_" gradientUnits="userSpaceOnUse" x1="-5376.6675" y1="2719.1814" x2="-5374.71" y2="2968.7236" gradientTransform="matrix(-1 0 0 1 -2200 0)">
				<stop  offset="0" style="stop-color:#FF928E"/>
				<stop  offset="1" style="stop-color:#FE7062"/>
			</linearGradient>
			<path style="fill:url(#SVGID_00000039812697891022454780000004318597659987677604_);" d="M3149.873,2688.22
				c4.417-4.486,10.548-6.856,16.834-6.507l43.452,2.415l-9.852,128.073l-21.019-14.647c-19.351-13.486-31.571-34.995-33.246-58.522
				l-2.413-33.877C3143.182,2698.874,3145.457,2692.706,3149.873,2688.22z"/>
			
				<linearGradient id="SVGID_00000022549466267452161980000015380467892778687122_" gradientUnits="userSpaceOnUse" x1="3145.3564" y1="1204.0588" x2="3158.5925" y2="3057.3308">
				<stop  offset="0" style="stop-color:#E1473D"/>
				<stop  offset="1" style="stop-color:#E9605A"/>
			</linearGradient>
			<path style="fill:url(#SVGID_00000022549466267452161980000015380467892778687122_);" d="M3094.813,2823.158h93.719
				c22.003,0,47.724,10.848,47.724,32.851v34.148c0,22.003-25.72,35.565-47.724,35.565h-93.719c-9.22,0-16.349-3.199-16.349-12.42
				v-80.439C3078.464,2823.643,3085.592,2823.158,3094.813,2823.158z"/>
			<g>
				<g>
					
						<linearGradient id="SVGID_00000079476986237249943230000017347375623800671399_" gradientUnits="userSpaceOnUse" x1="-3632.2686" y1="2888.4402" x2="-3273.7334" y2="2888.4402" gradientTransform="matrix(-1 0 0 1 -2200 0)">
						<stop  offset="0" style="stop-color:#09005D"/>
						<stop  offset="1" style="stop-color:#1A0F91"/>
					</linearGradient>
					
						<circle style="fill:url(#SVGID_00000079476986237249943230000017347375623800671399_);" cx="1253.001" cy="2888.44" r="179.268"/>
					
						<linearGradient id="SVGID_00000154391658165096224210000018406713210691014533_" gradientUnits="userSpaceOnUse" x1="2224.6545" y1="1648.7458" x2="1933.7096" y2="2019.951">
						<stop  offset="0" style="stop-color:#E1473D"/>
						<stop  offset="1" style="stop-color:#E9605A"/>
					</linearGradient>
					
						<circle style="fill:url(#SVGID_00000154391658165096224210000018406713210691014533_);" cx="1253.001" cy="2888.44" r="145.585"/>
					<path style="fill:#FFFFFF;" d="M1130.716,2941.96c-1.303,0-2.541-0.768-3.08-2.043c-6.898-16.31-10.396-33.63-10.396-51.477
						c0-72.919,59.323-132.242,132.242-132.242c22.62,0,44.943,5.81,64.558,16.802c1.61,0.903,2.185,2.943,1.28,4.553
						c-0.898,1.608-2.933,2.185-4.553,1.284c-18.616-10.435-39.809-15.949-61.286-15.949c-69.232,0-125.554,56.323-125.554,125.554
						c0,16.947,3.318,33.39,9.867,48.87c0.719,1.702-0.075,3.664-1.777,4.383C1131.595,2941.873,1131.151,2941.96,1130.716,2941.96z
						"/>
				</g>
				
					<linearGradient id="SVGID_00000132082357994380339810000005406876629833306807_" gradientUnits="userSpaceOnUse" x1="-3388.5959" y1="2780.636" x2="-3570.8279" y2="3079.2163" gradientTransform="matrix(-1 0 0 1 -2200 0)">
					<stop  offset="0" style="stop-color:#09005D"/>
					<stop  offset="1" style="stop-color:#1A0F91"/>
				</linearGradient>
				<path style="fill:url(#SVGID_00000132082357994380339810000005406876629833306807_);" d="M1187.626,2888.44
					c0,36.875,29.892,66.767,66.766,66.767c36.874,0,66.766-29.892,66.766-66.767c0-36.874-29.892-66.765-66.766-66.765
					C1217.518,2821.674,1187.626,2851.566,1187.626,2888.44z"/>
			</g>
			<path style="fill:#91B3FA;" d="M3178.615,2604.761c0,0-126.796-2.706-240.193-7.359
				c-103.088-4.23-192.021-73.663-221.203-172.625l-77.728-263.585c-4.125-13.987,6.36-28.009,20.942-28.008l393.865,0.017
				l131.315,462.305C3186.907,2600.062,3183.479,2604.595,3178.615,2604.761z"/>
			<path style="fill:#91B3FA;" d="M2606.794,2523.702l-58.01-362.17c-4.001-24.983-26.079-43.46-52.121-43.619l-1670.413-10.231
				c-32.805-0.201-57.944,28.246-52.753,59.695l61.471,372.401c4.126,24.998,26.341,43.384,52.418,43.384h1666.951
				C2586.909,2583.162,2611.799,2554.948,2606.794,2523.702z"/>
			<path style="fill:#BDD0FB;" d="M1930.532,2171.419c0-6.358-2.925-14.93-8.658-14.93h-504.569c-5.732,0-11.429,8.572-11.429,14.93
				v1.38c0,6.357,5.697,11.303,11.429,11.303h504.569c5.732,0,8.658-4.946,8.658-11.303V2171.419z"/>
			<path style="fill:#BDD0FB;" d="M2912.783,2183.619c0-6.358-2.115-11.35-4.635-11.35h-221.836c-2.52,0-2.326,4.992-2.326,11.35
				v1.38c0,6.357-0.194,10.938,2.326,10.938h221.836c2.52,0,4.635-4.581,4.635-10.938V2183.619z"/>
			
				<linearGradient id="SVGID_00000076573923834780817350000003670476237750739599_" gradientUnits="userSpaceOnUse" x1="1033.1837" y1="1111.4703" x2="1119.8541" y2="2525.564">
				<stop  offset="0" style="stop-color:#4F52FF"/>
				<stop  offset="1" style="stop-color:#4042E2"/>
			</linearGradient>
			<path style="fill:url(#SVGID_00000076573923834780817350000003670476237750739599_);" d="M1362.484,2171.419
				c0-6.358-4.211-14.93-9.943-14.93H847.971c-5.732,0-14.088,8.572-14.088,14.93v1.38c0,6.357,8.356,11.303,14.088,11.303h504.569
				c5.732,0,9.943-4.946,9.943-11.303V2171.419z"/>
			<path style="fill:#BDD0FB;" d="M2502.525,2171.419c0-6.358-5.584-14.93-11.316-14.93H1986.64c-5.732,0-12.715,8.572-12.715,14.93
				v1.38c0,6.357,6.983,11.303,12.715,11.303h504.569c5.732,0,11.316-4.946,11.316-11.303V2171.419z"/>
			<path style="opacity:0.58;fill:#FFFFFF;" d="M2917.124,2874.144h-294.512c-1.333,0-2.606-0.529-3.547-1.47
				c-0.944-0.942-1.47-2.219-1.47-3.55l0.448-702.014c0.016-21.474,14.808-38.943,32.977-38.943h259.53
				c21.154,0,38.365,20.422,38.365,45.523v662.92C2948.915,2857.306,2934.653,2874.144,2917.124,2874.144z M2627.632,2864.111
				h289.492c11.996,0,21.758-12.337,21.758-27.501v-662.92c0-19.57-12.711-35.49-28.332-35.49h-259.53
				c-12.639,0-22.934,12.972-22.944,28.917L2627.632,2864.111z"/>
			<g>
				<g>
					
						<linearGradient id="SVGID_00000137103261269818812940000002751850160388476076_" gradientUnits="userSpaceOnUse" x1="-4973.5381" y1="2888.4402" x2="-4615.0034" y2="2888.4402" gradientTransform="matrix(-1 0 0 1 -2200 0)">
						<stop  offset="0" style="stop-color:#09005D"/>
						<stop  offset="1" style="stop-color:#1A0F91"/>
					</linearGradient>
					
						<circle style="fill:url(#SVGID_00000137103261269818812940000002751850160388476076_);" cx="2594.271" cy="2888.44" r="179.268"/>
					
						<linearGradient id="SVGID_00000093861042800539265800000008584571197710050987_" gradientUnits="userSpaceOnUse" x1="3185.4939" y1="1952.3362" x2="3004.9082" y2="2238.2642">
						<stop  offset="0" style="stop-color:#E1473D"/>
						<stop  offset="1" style="stop-color:#E9605A"/>
					</linearGradient>
					
						<circle style="fill:url(#SVGID_00000093861042800539265800000008584571197710050987_);" cx="2594.271" cy="2888.44" r="145.585"/>
					<path style="opacity:0.58;fill:#FFFFFF;" d="M2471.985,2941.96c-1.303,0-2.541-0.768-3.08-2.043
						c-6.895-16.305-10.392-33.625-10.392-51.477c0-72.919,59.323-132.242,132.239-132.242c22.62,0,44.943,5.81,64.562,16.802
						c1.61,0.903,2.185,2.941,1.28,4.553c-0.898,1.608-2.933,2.185-4.553,1.284c-18.619-10.435-39.812-15.949-61.289-15.949
						c-69.229,0-125.55,56.323-125.55,125.554c0,16.952,3.318,33.395,9.863,48.87c0.719,1.702-0.075,3.664-1.777,4.383
						C2472.864,2941.873,2472.42,2941.96,2471.985,2941.96z"/>
				</g>
				
					<linearGradient id="SVGID_00000075877094986079829700000012834639117390411702_" gradientUnits="userSpaceOnUse" x1="-4729.8662" y1="2780.636" x2="-4912.0977" y2="3079.2161" gradientTransform="matrix(-1 0 0 1 -2200 0)">
					<stop  offset="0" style="stop-color:#09005D"/>
					<stop  offset="1" style="stop-color:#1A0F91"/>
				</linearGradient>
				<path style="fill:url(#SVGID_00000075877094986079829700000012834639117390411702_);" d="M2528.896,2888.44
					c0,36.875,29.892,66.767,66.766,66.767s66.766-29.892,66.766-66.767c0-36.874-29.892-66.765-66.766-66.765
					S2528.896,2851.566,2528.896,2888.44z"/>
			</g>
			<g>
				
					<linearGradient id="SVGID_00000103228339550208244270000015077182726972973218_" gradientUnits="userSpaceOnUse" x1="-5417.5225" y1="2188.9749" x2="-5136.3975" y2="2188.9749" gradientTransform="matrix(-1 0 0 1 -2200 0)">
					<stop  offset="0" style="stop-color:#09005D"/>
					<stop  offset="1" style="stop-color:#1A0F91"/>
				</linearGradient>
				<path style="fill:url(#SVGID_00000103228339550208244270000015077182726972973218_);" d="M2936.984,2124.036
					c2.527-10.831,12.183-18.828,23.304-18.828h147.471c12.555,0,24.201,6.883,30.725,17.609l79.039,130.113l-42.496,19.813
					l-51.871-101.105c-5.44-10.609-16.282-17.336-28.202-17.533l-136.518-2.246c-6.773-0.112-13.132-3.444-17.298-8.785
					C2936.971,2137.733,2935.445,2130.632,2936.984,2124.036z"/>
				
					<linearGradient id="SVGID_00000085219028190053598300000014184743885448086920_" gradientUnits="userSpaceOnUse" x1="-5432.3101" y1="2288.6399" x2="-5349.4697" y2="2288.6399" gradientTransform="matrix(-1 0 0 1 -2200 0)">
					<stop  offset="0" style="stop-color:#09005D"/>
					<stop  offset="1" style="stop-color:#1A0F91"/>
				</linearGradient>
				<path style="fill:url(#SVGID_00000085219028190053598300000014184743885448086920_);" d="M3232.31,2245.335
					c0-20.746-16.818-37.563-37.563-37.563h-7.713c-20.746,0-37.564,16.818-37.564,37.563v86.609
					c0,20.746,16.818,37.563,37.564,37.563h7.713c20.746,0,37.563-16.818,37.563-37.563V2245.335z"/>
				
					<linearGradient id="SVGID_00000080204216858026676300000007918059867627028121_" gradientUnits="userSpaceOnUse" x1="3274.5095" y1="2170.4016" x2="3043.5034" y2="2503.854">
					<stop  offset="0" style="stop-color:#FF928E"/>
					<stop  offset="1" style="stop-color:#FE7062"/>
				</linearGradient>
				<path style="fill:url(#SVGID_00000080204216858026676300000007918059867627028121_);" d="M3190.023,2207.772h-4.184
					c-3.272,0-6.119-0.595-9.14,0.203c13.653,4.2,24.052,17.729,24.052,35.122v86.802c0,16.753-9.656,30.93-22.542,35.708
					c-0.031,0.283-0.209-0.321-0.24-0.037c2.588,0.563,5.114-0.008,7.87-0.008h4.184c20.746,0,38.342-15.046,38.342-35.791v-86.543
					C3228.365,2222.483,3210.769,2207.772,3190.023,2207.772z"/>
			</g>
		</g>
		<g>
			<g>
				
					<linearGradient id="SVGID_00000093896004827006630300000009885199191428608908_" gradientUnits="userSpaceOnUse" x1="880.8925" y1="2295.2295" x2="1475.6334" y2="1164.1615">
					<stop  offset="0" style="stop-color:#09005D"/>
					<stop  offset="1" style="stop-color:#1A0F91"/>
				</linearGradient>
				<path style="fill:url(#SVGID_00000093896004827006630300000009885199191428608908_);" d="M969.296,1462.459
					c-91.425,56.176-82.291,206.126-124.409,283.354c-25.357,46.495-81.538,45.75-124.792,139.41
					c-43.254,93.659,21.771,137.602-18.373,203.831c-40.143,66.229-208.293,105.121-232.977,248.826
					c-19.019,110.73,16.806,255.003,139.945,255.003s639.241-317.661,639.241-317.661c3.367-1.736-186.646,143.059,6.361-8.191
					c193.007-151.25,87.194-216.52,87.194-455.127s-34.105-345.291-114.013-346.044
					C1096.233,1464.622,1060.722,1406.283,969.296,1462.459z"/>
				
					<linearGradient id="SVGID_00000057109066854912949230000009515702574125211783_" gradientUnits="userSpaceOnUse" x1="568.9037" y1="2679.2351" x2="2023.8501" y2="2679.2351">
					<stop  offset="0" style="stop-color:#4F52FF"/>
					<stop  offset="1" style="stop-color:#4042E2"/>
				</linearGradient>
				<path style="fill:url(#SVGID_00000057109066854912949230000009515702574125211783_);" d="M599.388,3237.367
					c0,0-35.58-297.368-29.862-427.737s23.264-591.389,387.775-661.715s402.224,12.807,447.877,76.191
					c419.741,723.499,503.023,99.28,503.023,99.28l115.649,97.731c0,0-121.024,612.97-597.791,216.638
					c0,0,10.532,48.514-71.213,167.356s-88.536,431.942-88.536,431.942L599.388,3237.367z"/>
				
					<linearGradient id="SVGID_00000078728352437539404520000016170885838323026076_" gradientUnits="userSpaceOnUse" x1="1058.8396" y1="2304.5793" x2="1177.6594" y2="1938.2177">
					<stop  offset="0" style="stop-color:#FEBBBA"/>
					<stop  offset="1" style="stop-color:#FF928E"/>
				</linearGradient>
				<path style="fill:url(#SVGID_00000078728352437539404520000016170885838323026076_);" d="M1228.846,1961.982
					c-1.123,7.636-25.512,169.971-32.995,202.573c-7.484,32.602-119.184,27.836-179.474-1.521l64.239-208.217L1228.846,1961.982z"/>
				<g>
					
						<linearGradient id="SVGID_00000170249787926265100570000011222979219993189014_" gradientUnits="userSpaceOnUse" x1="-972.7981" y1="1184.5303" x2="-1095.6766" y2="1656.3831" gradientTransform="matrix(-0.6776 -0.7354 -0.7354 0.6776 1272.2397 506.6456)">
						<stop  offset="0" style="stop-color:#FEBBBA"/>
						<stop  offset="1" style="stop-color:#FF928E"/>
					</linearGradient>
					<path style="fill:url(#SVGID_00000170249787926265100570000011222979219993189014_);" d="M1388.933,1642.845
						c0,0,32.182,112.135-35.137,277.539s-160.661,174.198-216.518,128.686c-55.857-45.512-126.979-125.01-126.654-278.707
						C1010.948,1616.665,1331.601,1498.016,1388.933,1642.845z"/>
					
						<linearGradient id="SVGID_00000012474931558699933320000011083938718520079769_" gradientUnits="userSpaceOnUse" x1="883.8239" y1="2291.0764" x2="1431.1206" y2="1250.2368">
						<stop  offset="0" style="stop-color:#09005D"/>
						<stop  offset="1" style="stop-color:#1A0F91"/>
					</linearGradient>
					<path style="fill:url(#SVGID_00000012474931558699933320000011083938718520079769_);" d="M1125.453,1767.685
						c56.461,25.442,172.329-190.179,262.117-75.43c15.998,25.554,5.042,68.43,4.511,79.441c0,0,150.713-46.609,111.202-181.833
						s-177.615-208.851-339.076-133.131c-161.46,75.72-251.395,146.105-250.68,266.956c0.715,120.85,93.516,85.428,93.516,85.428
						s18.105-102.012,61.471-115.028C1111.879,1681.07,1068.992,1742.243,1125.453,1767.685z"/>
					
						<linearGradient id="SVGID_00000118360854703675010250000003911502408070170496_" gradientUnits="userSpaceOnUse" x1="-813.8403" y1="1258.179" x2="-935.9375" y2="1727.0315" gradientTransform="matrix(-0.6776 -0.7354 -0.7354 0.6776 1272.2397 506.6456)">
						<stop  offset="0" style="stop-color:#FEBBBA"/>
						<stop  offset="1" style="stop-color:#FF928E"/>
					</linearGradient>
					<path style="fill:url(#SVGID_00000118360854703675010250000003911502408070170496_);" d="M1064,1791.939
						c0,0,65.545-113.884-8.678-122.873c-74.223-8.989-51.393,110.233-39.275,153.975L1064,1791.939z"/>
				</g>
			</g>
			
				<linearGradient id="SVGID_00000069382787566339166630000007552735101161996961_" gradientUnits="userSpaceOnUse" x1="1434.8597" y1="1274.4769" x2="1267.5022" y2="1510.6006" gradientTransform="matrix(0.8484 0.5294 -0.5294 0.8484 1474.5519 330.0141)">
				<stop  offset="0" style="stop-color:#FEBBBA"/>
				<stop  offset="1" style="stop-color:#FF928E"/>
			</linearGradient>
			<path style="fill:url(#SVGID_00000069382787566339166630000007552735101161996961_);" d="M1902.826,2255.889
				c0,0,2.567-48.516,22.819-76.198c20.251-27.683,28.763-81.586,46.039-66.425c17.276,15.161,22.853,15.067,6.347,53.15
				C1961.525,2204.499,1928.358,2362.26,1902.826,2255.889z"/>
			<g>
				
					<linearGradient id="SVGID_00000006691795682318297300000008525917046500318128_" gradientUnits="userSpaceOnUse" x1="1807.7954" y1="3510.1294" x2="1221.5797" y2="4337.2173" gradientTransform="matrix(0.9187 0.3948 0.3948 -0.9187 -990.5322 5041.668)">
					<stop  offset="0" style="stop-color:#09005D"/>
					<stop  offset="1" style="stop-color:#1A0F91"/>
				</linearGradient>
				<path style="fill:url(#SVGID_00000006691795682318297300000008525917046500318128_);" d="M1993.417,2493.048
					c-2.772,5.798-7.978,10.062-14.208,11.638c-6.231,1.574-12.839,0.299-18.033-3.486l-129.69-94.472
					c-5.036-3.668-6.513-10.533-3.431-15.948l202.358-355.646c0.872-1.532,2.321-2.655,4.025-3.114s3.521-0.219,5.045,0.668
					l118.936,69.125c9.742,5.663,13.505,17.856,8.644,28.023L1993.417,2493.048z"/>
				<path style="fill:#BDD0FB;" d="M1974.489,2425.652c-1.508,2.996-4.399,5.116-7.884,5.783c-3.485,0.666-7.2-0.188-10.133-2.335
					l-85.241-62.36c-4.929-3.605-6.487-9.937-3.645-14.809l161.466-276.792c0.848-1.452,2.315-2.47,4.057-2.814
					c1.742-0.344,3.601,0.016,5.137,0.998l81.087,51.736c2.813,1.795,3.889,5.208,2.507,7.952L1974.489,2425.652z"/>
				<path style="fill:#FFFFFF;" d="M1905.755,2433.246c-2.424,0-5.033-0.826-7.44-2.508l-28.814-20.156
					c-2.9-2.014-4.867-4.861-5.384-7.802l-0.517-2.924l4.302-6.982l3.91-1.099c2.935-0.517,6.281,0.339,9.187,2.377l28.802,20.15
					c2.888,2.008,4.855,4.849,5.378,7.784l0.523,2.917l-2.585,4.57C1911.417,2432.004,1908.726,2433.246,1905.755,2433.246z
					 M1901.488,2421.438l6.453,3.048l-5.764-4.023c-0.148,0.137-0.291,0.291-0.428,0.452
					C1901.655,2421.088,1901.565,2421.26,1901.488,2421.438z"/>
			</g>
			
				<linearGradient id="SVGID_00000145737700020568885150000015780968212390332556_" gradientUnits="userSpaceOnUse" x1="1636.7832" y1="1231.2094" x2="1290.3695" y2="1719.9622" gradientTransform="matrix(0.8484 0.5294 -0.5294 0.8484 1474.5519 330.0141)">
				<stop  offset="0" style="stop-color:#FEBBBA"/>
				<stop  offset="1" style="stop-color:#FF928E"/>
			</linearGradient>
			<path style="fill:url(#SVGID_00000145737700020568885150000015780968212390332556_);" d="M2170.356,2247.63
				c-16.513-21.285-13.162-120.09-36.108-101.214c-22.946,18.876-31.944,58.749-41.678,66.79
				c-9.735,8.043-68.173,50.003-73.929,82.488c-4.153,23.441-27.695,88.86-40.481,123.466c-4.243,11.486,0.161,24.374,10.547,30.863
				c10.385,6.488,23.898,4.794,32.36-4.057C2024.462,2442.417,2186.871,2268.913,2170.356,2247.63z"/>
			
				<linearGradient id="SVGID_00000050620530865091572190000011997385057634474172_" gradientUnits="userSpaceOnUse" x1="1069.554" y1="1428.443" x2="984.2768" y2="2020.3643">
				<stop  offset="0" style="stop-color:#09005D"/>
				<stop  offset="1" style="stop-color:#1A0F91"/>
			</linearGradient>
			<path style="fill:url(#SVGID_00000050620530865091572190000011997385057634474172_);" d="M833.88,3247.965
				c-1.737,0-3.204-1.342-3.333-3.101c-17.695-242.58-2.531-433.275,47.724-600.132c0.534-1.769,2.404-2.766,4.167-2.237
				c1.769,0.532,2.77,2.399,2.237,4.167c-50.012,166.049-65.092,355.976-47.456,597.715c0.134,1.842-1.251,3.444-3.093,3.579
				C834.044,3247.962,833.962,3247.965,833.88,3247.965z"/>
			
				<linearGradient id="SVGID_00000083791230296607733300000014288457442262145931_" gradientUnits="userSpaceOnUse" x1="1728.2947" y1="1600.8695" x2="1562.7574" y2="2017.2207">
				<stop  offset="0" style="stop-color:#09005D"/>
				<stop  offset="1" style="stop-color:#1A0F91"/>
			</linearGradient>
			<path style="fill:url(#SVGID_00000083791230296607733300000014288457442262145931_);" d="M1422.392,2620.387h-0.003
				c-1.847-0.002-3.343-1.501-3.341-3.348c0.073-77.563-33.723-157.232-100.452-236.794c-1.187-1.416-1.003-3.524,0.413-4.711
				c1.417-1.189,3.526-1.001,4.711,0.413c67.769,80.802,102.091,161.919,102.016,241.099
				C1425.735,2618.892,1424.237,2620.387,1422.392,2620.387z"/>
		</g>
	</g>
</g>
</svg>
