<svg width="19" height="19" viewBox="0 0 19 19" fill="none" xmlns="http://www.w3.org/2000/svg">
<path d="M14.2746 13.1549L17.6651 16.5454L16.5455 17.665L13.155 14.2745C11.9359 15.2499 10.3899 15.8333 8.70837 15.8333C4.77537 15.8333 1.58337 12.6413 1.58337 8.70831C1.58337 4.77531 4.77537 1.58331 8.70837 1.58331C12.6414 1.58331 15.8334 4.77531 15.8334 8.70831C15.8334 10.3898 15.2499 11.9359 14.2746 13.1549ZM12.6863 12.5675C13.6543 11.5699 14.25 10.209 14.25 8.70831C14.25 5.64654 11.7701 3.16665 8.70837 3.16665C5.6466 3.16665 3.16671 5.64654 3.16671 8.70831C3.16671 11.7701 5.6466 14.25 8.70837 14.25C10.2091 14.25 11.5699 13.6543 12.5676 12.6862L12.6863 12.5675Z" fill="#959595"/>
</svg>
